<?xml version="1.0" encoding="UTF-8"?>
<svg width="106px" height="101px" viewBox="0 0 106 101" version="1.1" xmlns="http://www.w3.org/2000/svg" xmlns:xlink="http://www.w3.org/1999/xlink">
    <!-- Generator: Sketch 61.2 (89653) - https://sketch.com -->
    <title>Path 2</title>
    <desc>Created with Sketch.</desc>
    <g id="Page-1" stroke="none" stroke-width="1" fill="none" fill-rule="evenodd">
        <g id="Artboard" transform="translate(-521.000000, -694.000000)" stroke="#000000" stroke-width="5">
            <path d="M557.725334,726.553275 C566.386045,706.851092 571.819539,697 574.025817,697 C576.232095,697 581.663253,706.851092 590.319289,726.553275 C612.330854,728.983284 623.568435,731.207713 624.032032,733.226562 C624.495628,735.24541 616.736472,743.364199 600.754564,757.582927 C605.236035,778.509996 606.664201,789.77661 605.039062,791.382767 C603.413922,792.988924 593.078246,788.292385 574.032032,777.29315 C555.828109,787.861282 545.721001,792.55782 543.710707,791.382767 C541.700414,790.207713 542.903073,778.9411 547.318684,757.582927 C531.196725,743.5973 523.434507,735.478512 524.032032,733.226562 C524.629556,730.974612 535.860657,728.750183 557.725334,726.553275 Z" id="Path-2"></path>
        </g>
    </g>
</svg>